<svg width="55" height="54" viewBox="0 0 55 54" fill="none" xmlns="http://www.w3.org/2000/svg">
<rect x="0.909618" y="0.909618" width="52.7578" height="51.8482" rx="3.63847" stroke="url(#paint0_linear_40_6)" stroke-width="1.81924"/>
<path d="M44.3134 21.7964H32.1929V11.1651C36.4409 12.3046 40.0154 15.2678 41.9117 19.3009C42.1932 19.9032 42.9075 20.1605 43.5098 19.876C44.1091 19.593 44.3679 18.8787 44.0864 18.2794C41.6468 13.0976 36.8253 9.43681 31.1925 8.49096C30.8399 8.43497 30.4873 8.53031 30.2164 8.75731C29.947 8.98734 29.7927 9.3218 29.7927 9.67592V22.998C29.7927 23.6624 30.3284 24.1997 30.9928 24.1997H44.3134C44.9777 24.1997 45.515 23.6624 45.515 22.998C45.515 22.3352 44.9777 21.7964 44.3134 21.7964ZM39.51 27.7107H26.2998V18.4519C26.2998 17.7906 25.7626 17.2518 25.0982 17.2518C24.4339 17.2518 23.8966 17.7906 23.8966 18.4519V28.9123C23.8966 29.5766 24.4339 30.1124 25.0982 30.1124H38.2554C37.6485 36.8377 31.9795 42.1224 25.0982 42.1224C17.8144 42.1224 11.8881 36.1961 11.8881 28.9123C11.8881 21.6269 17.8144 15.7006 25.0982 15.7006C25.7626 15.7006 26.2998 15.1619 26.2998 14.5005C26.2998 13.8362 25.7626 13.2989 25.0982 13.2989C16.4902 13.2989 9.48486 20.3027 9.48486 28.9123C9.48486 37.5203 16.4902 44.5241 25.0982 44.5241C33.7077 44.5241 40.7101 37.5203 40.7101 28.9123C40.7101 28.2479 40.1743 27.7107 39.51 27.7107Z" fill="white"/>
<defs>
<linearGradient id="paint0_linear_40_6" x1="27.2885" y1="0" x2="27.2885" y2="53.6674" gradientUnits="userSpaceOnUse">
<stop stop-color="#FFD600"/>
<stop offset="1" stop-color="#FF8A00"/>
</linearGradient>
</defs>
</svg>
