<svg width="55" height="55" viewBox="0 0 55 55" fill="none" xmlns="http://www.w3.org/2000/svg">
<path d="M16.2523 34.25H13.3356C11.7314 34.25 10.4189 35.5625 10.4189 37.1667C10.4189 38.7708 11.7314 40.0833 13.3356 40.0833H16.2523C17.8564 40.0833 19.1689 38.7708 19.1689 37.1667C19.1689 35.5625 17.8564 34.25 16.2523 34.25Z" fill="white"/>
<path d="M27.9189 31.3333H25.0022C23.3981 31.3333 22.0856 32.6458 22.0856 34.25V37.1667C22.0856 38.7708 23.3981 40.0833 25.0022 40.0833H27.9189C29.5231 40.0833 30.8356 38.7708 30.8356 37.1667V34.25C30.8356 32.6458 29.5231 31.3333 27.9189 31.3333Z" fill="white"/>
<path d="M39.5855 25.5H36.6689C35.0647 25.5 33.7522 26.8125 33.7522 28.4167V37.1667C33.7522 38.7708 35.0647 40.0833 36.6689 40.0833H39.5855C41.1897 40.0833 42.5022 38.7708 42.5022 37.1667V28.4167C42.5022 26.8125 41.1897 25.5 39.5855 25.5Z" fill="white"/>
<path d="M41.0439 10.9167H31.4189C30.1064 10.9167 29.5231 12.5208 30.3981 13.3958L33.1689 16.1667C27.7731 22.2917 20.0439 26.9583 11.8773 26.9583C11.0023 26.9583 10.4189 27.5417 10.4189 28.4167C10.4189 29.2917 11.0023 29.875 11.8773 29.875C21.6481 29.875 30.6898 27.1042 37.2523 20.25L39.8773 22.875C40.7523 23.75 42.3564 23.1667 42.3564 21.8542V12.375C42.5023 11.5 41.9189 10.9167 41.0439 10.9167Z" fill="white"/>
<rect x="0.909618" y="1.69062" width="52.7578" height="51.8482" rx="3.63847" stroke="url(#paint0_linear_40_7)" stroke-width="1.81924"/>
<defs>
<linearGradient id="paint0_linear_40_7" x1="27.2885" y1="0.781006" x2="27.2885" y2="54.4484" gradientUnits="userSpaceOnUse">
<stop stop-color="#FFD600"/>
<stop offset="1" stop-color="#FF8A00"/>
</linearGradient>
</defs>
</svg>
