<svg width="55" height="54" viewBox="0 0 55 54" fill="none" xmlns="http://www.w3.org/2000/svg">
<rect x="0.909618" y="0.909618" width="52.7578" height="51.8482" rx="3.63847" stroke="url(#paint0_linear_40_5)" stroke-width="1.81924"/>
<g clip-path="url(#clip0_40_5)">
<path d="M27 21.5C26.4561 21.5 25.9244 21.3387 25.4722 21.0365C25.0199 20.7344 24.6675 20.3049 24.4593 19.8024C24.2512 19.2999 24.1967 18.747 24.3028 18.2135C24.409 17.6801 24.6709 17.1901 25.0555 16.8055C25.4401 16.4209 25.9301 16.159 26.4635 16.0528C26.997 15.9467 27.5499 16.0012 28.0524 16.2093C28.5549 16.4175 28.9844 16.7699 29.2865 17.2222C29.5887 17.6744 29.75 18.2061 29.75 18.75C29.75 19.4793 29.4603 20.1788 28.9445 20.6945C28.4288 21.2103 27.7293 21.5 27 21.5Z" fill="white"/>
<path d="M27 44.875C23.4647 44.875 20.0087 43.8267 17.0692 41.8625C14.1297 39.8984 11.8386 37.1067 10.4857 33.8405C9.13274 30.5742 8.77876 26.9802 9.46847 23.5128C10.1582 20.0454 11.8606 16.8603 14.3605 14.3605C16.8603 11.8606 20.0454 10.1582 23.5128 9.46847C26.9802 8.77876 30.5742 9.13274 33.8405 10.4857C37.1067 11.8386 39.8984 14.1297 41.8625 17.0692C43.8267 20.0087 44.875 23.4647 44.875 27C44.875 31.7408 42.9918 36.2873 39.6395 39.6395C36.2873 42.9918 31.7408 44.875 27 44.875ZM27 11.875C24.0086 11.875 21.0843 12.7621 18.597 14.424C16.1097 16.086 14.1711 18.4482 13.0263 21.2119C11.8816 23.9757 11.582 27.0168 12.1656 29.9508C12.7492 32.8847 14.1897 35.5797 16.305 37.695C18.4203 39.8103 21.1153 41.2508 24.0493 41.8344C26.9832 42.418 30.0244 42.1185 32.7881 40.9737C35.5518 39.8289 37.914 37.8903 39.576 35.403C41.2379 32.9157 42.125 29.9915 42.125 27C42.125 22.9886 40.5315 19.1415 37.695 16.305C34.8585 13.4685 31.0114 11.875 27 11.875Z" fill="white"/>
<path d="M27 38C26.2707 38 25.5712 37.7103 25.0555 37.1945C24.5397 36.6788 24.25 35.9793 24.25 35.25V27C24.25 26.2707 24.5397 25.5712 25.0555 25.0555C25.5712 24.5397 26.2707 24.25 27 24.25C27.7293 24.25 28.4288 24.5397 28.9445 25.0555C29.4603 25.5712 29.75 26.2707 29.75 27V35.25C29.75 35.9793 29.4603 36.6788 28.9445 37.1945C28.4288 37.7103 27.7293 38 27 38Z" fill="white"/>
</g>
<defs>
<linearGradient id="paint0_linear_40_5" x1="27.2885" y1="0" x2="27.2885" y2="53.6674" gradientUnits="userSpaceOnUse">
<stop stop-color="#FFD600"/>
<stop offset="1" stop-color="#FF8A00"/>
</linearGradient>
<clipPath id="clip0_40_5">
<rect width="44" height="44" fill="white" transform="translate(5 5)"/>
</clipPath>
</defs>
</svg>
