<svg width="55" height="54" viewBox="0 0 55 54" fill="none" xmlns="http://www.w3.org/2000/svg">
<rect x="0.909618" y="0.909618" width="52.7578" height="51.8482" rx="3.63847" stroke="url(#paint0_linear_40_4)" stroke-width="1.81924"/>
<g clip-path="url(#clip0_40_4)">
<path d="M26.4999 39.2184C18.9236 39.2184 12.7816 33.0764 12.7816 25.5001C12.7816 17.9235 18.9236 11.7816 26.4999 11.7816C34.0765 11.7816 40.2184 17.9235 40.2184 25.5001C40.2184 33.0764 34.0765 39.2184 26.4999 39.2184Z" stroke="white" stroke-width="3.56325"/>
<path d="M24.6764 14.8742V17.1576C23.7524 17.1576 19.5958 18.3347 19.5958 22.1087C19.5958 25.466 22.5953 26.38 24.6742 26.6799L24.6764 30.4739C23.1584 30.0406 22.8826 28.8727 22.6718 27.9072H19.3389C19.5451 31.683 22.8614 33.4391 24.6764 33.7058V36.0287H27.8446V33.7409C30.3525 33.6076 33.3226 31.4419 33.3226 28.4737C33.3226 25.0742 30.3641 24.1092 27.8446 23.8498V20.372C28.8359 20.4422 29.6095 21.4259 29.6933 22.427H32.9933C32.9933 19.0546 29.925 17.2806 27.8117 17.1576V14.8742H24.6764ZM24.6939 20.4049V23.2877C22.4605 23.2526 22.4171 20.8049 24.6939 20.4049ZM27.8819 27.2222C30.6457 27.2925 30.9518 30.0504 27.8775 30.4915L27.8819 27.2222Z" fill="white"/>
<path d="M27.8783 30.4904L27.8814 27.2214L27.8783 30.4904Z" fill="white"/>
</g>
<defs>
<linearGradient id="paint0_linear_40_4" x1="27.2885" y1="0" x2="27.2885" y2="53.6674" gradientUnits="userSpaceOnUse">
<stop stop-color="#FFD600"/>
<stop offset="1" stop-color="#FF8A00"/>
</linearGradient>
<clipPath id="clip0_40_4">
<rect width="31" height="31" fill="white" transform="translate(11 10)"/>
</clipPath>
</defs>
</svg>
