<svg width="55" height="55" viewBox="0 0 55 55" fill="none" xmlns="http://www.w3.org/2000/svg">
<path d="M26.5 43.4729C35.8516 43.4729 43.4531 35.8713 43.4531 26.5198C43.4531 17.1682 35.8516 9.56665 26.5 9.56665C17.1484 9.56665 9.54688 17.1682 9.54688 26.5198C9.54688 35.8713 17.1484 43.4729 26.5 43.4729ZM13.375 33.2737L20.2656 33.219C21.0313 35.9807 22.3164 38.6604 24.0664 41.0666C19.3906 40.301 15.4805 37.3206 13.375 33.2737ZM22.0156 21.8713H30.6016C31.2305 24.8792 31.2305 27.969 30.6562 30.9768L22.0156 31.0315C21.3867 27.9963 21.3867 24.8792 22.0156 21.8713ZM26.3086 40.4377C24.5859 38.2229 23.3281 35.7893 22.5625 33.219L30.082 33.1643C29.2891 35.7346 28.0312 38.1956 26.3086 40.4377ZM28.4961 41.1487C30.3008 38.6877 31.5859 35.9807 32.3516 33.137L39.707 33.0823C37.5742 37.3752 33.418 40.4651 28.4961 41.1487ZM41.2656 26.5198C41.2656 28.051 41.0195 29.5276 40.6094 30.8948L32.8711 30.9495C33.418 27.9416 33.3906 24.8792 32.8164 21.8713H40.5C40.9922 23.3206 41.2656 24.9065 41.2656 26.5198ZM39.5703 19.6838H32.2969C31.5039 16.9495 30.2461 14.2971 28.4961 11.8909C33.3359 12.5471 37.4102 15.5276 39.5703 19.6838ZM30.0273 19.6838H22.5898C23.3828 17.1682 24.6133 14.7893 26.3086 12.6018C28.0039 14.7893 29.2344 17.1682 30.0273 19.6838ZM24.0664 11.9729C22.3437 14.3518 21.0859 16.9495 20.3203 19.6838H13.4297C15.5352 15.6643 19.418 12.7385 24.0664 11.9729ZM19.8008 21.8713C19.2266 24.9065 19.2266 27.9963 19.7734 31.0315L12.4727 31.0862C11.9805 29.637 11.7344 28.1057 11.7344 26.5198C11.7344 24.9065 12.0078 23.3206 12.5 21.8713H19.8008Z" fill="white"/>
<rect x="0.909618" y="1.54805" width="52.7578" height="51.8482" rx="3.63847" stroke="url(#paint0_linear_40_3)" stroke-width="1.81924"/>
<defs>
<linearGradient id="paint0_linear_40_3" x1="27.2885" y1="0.638428" x2="27.2885" y2="54.3059" gradientUnits="userSpaceOnUse">
<stop stop-color="#FFD600"/>
<stop offset="1" stop-color="#FF8A00"/>
</linearGradient>
</defs>
</svg>
