<svg width="55" height="55" viewBox="0 0 55 55" fill="none" xmlns="http://www.w3.org/2000/svg">
<rect x="0.909618" y="1.54817" width="52.7578" height="51.8482" rx="3.63847" stroke="url(#paint0_linear_40_8)" stroke-width="1.81924"/>
<g clip-path="url(#clip0_40_8)">
<path d="M35.7104 41.551H17.2104C15.6772 41.551 14.2067 40.9419 13.1225 39.8577C12.0383 38.7735 11.4292 37.3031 11.4292 35.7698V19.5823C11.4292 19.2756 11.551 18.9815 11.7679 18.7647C11.9847 18.5478 12.2788 18.426 12.5854 18.426H35.7104C37.2437 18.426 38.7142 19.0351 39.7984 20.1193C40.8826 21.2035 41.4917 22.674 41.4917 24.2073V35.7698C41.4917 37.3031 40.8826 38.7735 39.7984 39.8577C38.7142 40.9419 37.2437 41.551 35.7104 41.551ZM13.7417 20.7385V35.7698C13.7417 36.6897 14.1072 37.572 14.7577 38.2226C15.4082 38.8731 16.2905 39.2385 17.2104 39.2385H35.7104C36.6304 39.2385 37.5127 38.8731 38.1632 38.2226C38.8137 37.572 39.1792 36.6897 39.1792 35.7698V24.2073C39.1792 23.2873 38.8137 22.405 38.1632 21.7545C37.5127 21.104 36.6304 20.7385 35.7104 20.7385H13.7417Z" fill="white"/>
<path d="M38.023 20.7385C37.7163 20.7385 37.4222 20.6167 37.2054 20.3999C36.9885 20.183 36.8667 19.8889 36.8667 19.5823V16.4026C36.8889 15.9975 36.8193 15.5927 36.6631 15.2183C36.5069 14.8439 36.2682 14.5096 35.9648 14.2404C35.6922 14.0362 35.3766 13.8967 35.0421 13.8326C34.7075 13.7685 34.3627 13.7814 34.0339 13.8704L14.6436 18.2757C14.3828 18.3345 14.1503 18.4818 13.9859 18.6926C13.8215 18.9034 13.7352 19.1647 13.7417 19.432C13.7417 19.7386 13.6199 20.0327 13.403 20.2496C13.1862 20.4664 12.8921 20.5882 12.5855 20.5882C12.2788 20.5882 11.9847 20.4664 11.7679 20.2496C11.551 20.0327 11.4292 19.7386 11.4292 19.432C11.4224 18.6415 11.6858 17.8725 12.1757 17.2522C12.6657 16.6319 13.3528 16.1975 14.1233 16.021L33.5251 11.6157C34.1924 11.447 34.8895 11.4332 35.5629 11.5755C36.2363 11.7178 36.8682 12.0124 37.4101 12.4367C37.9832 12.923 38.4397 13.5319 38.7459 14.2183C39.0521 14.9048 39.2002 15.6512 39.1792 16.4026V19.5823C39.1792 19.8889 39.0574 20.183 38.8405 20.3999C38.6237 20.6167 38.3296 20.7385 38.023 20.7385Z" fill="white"/>
<path d="M40.3354 34.6135H32.2417C31.0151 34.6135 29.8387 34.1262 28.9713 33.2589C28.104 32.3915 27.6167 31.2152 27.6167 29.9885C27.6167 28.7619 28.104 27.5855 28.9713 26.7182C29.8387 25.8508 31.0151 25.3635 32.2417 25.3635H40.3354C40.6421 25.3635 40.9362 25.4853 41.153 25.7022C41.3699 25.919 41.4917 26.2131 41.4917 26.5198V33.4573C41.4917 33.7639 41.3699 34.058 41.153 34.2749C40.9362 34.4917 40.6421 34.6135 40.3354 34.6135ZM32.2417 27.676C31.6284 27.676 31.0402 27.9197 30.6065 28.3533C30.1728 28.787 29.9292 29.3752 29.9292 29.9885C29.9292 30.6018 30.1728 31.19 30.6065 31.6237C31.0402 32.0574 31.6284 32.301 32.2417 32.301H39.1792V27.676H32.2417Z" fill="white"/>
</g>
<defs>
<linearGradient id="paint0_linear_40_8" x1="27.2885" y1="0.63855" x2="27.2885" y2="54.306" gradientUnits="userSpaceOnUse">
<stop stop-color="#FFD600"/>
<stop offset="1" stop-color="#FF8A00"/>
</linearGradient>
<clipPath id="clip0_40_8">
<rect width="37" height="37" fill="white" transform="translate(7.96045 8.01978)"/>
</clipPath>
</defs>
</svg>
